<svg width="473" height="473" viewBox="0 0 473 473" fill="none" xmlns="http://www.w3.org/2000/svg">
<path d="M144.776 228.149C125.418 228.149 108.222 224.442 93.1891 217.028C78.1557 209.614 66.3144 199.318 57.6651 186.138C49.2217 172.752 45 157.513 45 140.42C45 123.327 49.2217 108.191 57.6651 95.011C66.3144 81.8311 78.1557 71.5343 93.1891 64.1206C108.222 56.7069 125.418 53 144.776 53C165.37 53 182.977 57.4276 197.599 66.2829C212.22 75.1381 222.311 87.3913 227.871 103.042L173.813 129.608C170.312 121.783 165.988 116.119 160.839 112.619C155.897 109.118 150.439 107.367 144.467 107.367C139.319 107.367 134.479 108.603 129.949 111.074C125.624 113.545 122.123 117.252 119.446 122.195C116.975 126.931 115.739 133.006 115.739 140.42C115.739 147.834 116.975 154.012 119.446 158.954C122.123 163.897 125.624 167.603 129.949 170.075C134.479 172.546 139.319 173.782 144.467 173.782C150.439 173.782 155.897 172.031 160.839 168.53C165.988 165.029 170.312 159.366 173.813 151.54L227.871 178.106C222.311 193.757 212.22 206.011 197.599 214.866C182.977 223.721 165.37 228.149 144.776 228.149Z" fill="black"/>
<path fill-rule="evenodd" clip-rule="evenodd" d="M331.772 228.149C312.62 228.149 295.63 224.442 280.803 217.028C266.181 209.409 254.649 199.009 246.205 185.829C237.762 172.649 233.54 157.513 233.54 140.42C233.54 123.327 237.762 108.191 246.205 95.011C254.649 81.8311 266.181 71.5343 280.803 64.1206C295.63 56.7069 312.62 53 331.772 53C350.924 53 367.914 56.7069 382.741 64.1206C397.568 71.5343 409.101 81.8311 417.338 95.011C425.782 108.191 430.003 123.327 430.003 140.42C430.003 157.513 425.782 172.649 417.338 185.829C409.101 199.009 397.568 209.409 382.741 217.028C367.914 224.442 350.924 228.149 331.772 228.149ZM331.772 173.782C336.92 173.782 341.554 172.546 345.672 170.075C349.791 167.603 353.086 163.897 355.557 158.954C358.029 153.806 359.264 147.628 359.264 140.42C359.264 133.006 358.029 126.931 355.557 122.195C353.086 117.252 349.791 113.545 345.672 111.074C341.554 108.603 336.92 107.367 331.772 107.367C326.623 107.367 321.99 108.603 317.871 111.074C313.752 113.545 310.457 117.252 307.986 122.195C305.515 126.931 304.279 133.006 304.279 140.42C304.279 147.628 305.515 153.806 307.986 158.954C310.457 163.897 313.752 167.603 317.871 170.075C321.99 172.546 326.623 173.782 331.772 173.782Z" fill="black"/>
<path d="M330.224 425.149C349.582 425.149 366.778 421.442 381.811 414.028C396.844 406.614 408.686 396.318 417.335 383.138C425.778 369.752 430 354.513 430 337.42C430 320.327 425.778 305.191 417.335 292.011C408.686 278.831 396.844 268.534 381.811 261.121C366.778 253.707 349.582 250 330.224 250C309.63 250 292.023 254.428 277.401 263.283C262.78 272.138 252.689 284.391 247.129 300.042L301.187 326.608C304.688 318.783 309.012 313.119 314.161 309.619C319.103 306.118 324.561 304.367 330.533 304.367C335.681 304.367 340.521 305.603 345.051 308.074C349.376 310.545 352.877 314.252 355.554 319.195C358.025 323.931 359.261 330.006 359.261 337.42C359.261 344.834 358.025 351.012 355.554 355.954C352.877 360.897 349.376 364.603 345.051 367.075C340.521 369.546 335.681 370.782 330.533 370.782C324.561 370.782 319.103 369.031 314.161 365.53C309.012 362.029 304.688 356.366 301.187 348.54L247.129 375.106C252.689 390.757 262.78 403.011 277.401 411.866C292.023 420.721 309.63 425.149 330.224 425.149Z" fill="black"/>
<path fill-rule="evenodd" clip-rule="evenodd" d="M143.228 425.149C162.38 425.149 179.37 421.442 194.197 414.028C208.819 406.409 220.351 396.009 228.795 382.829C237.238 369.649 241.46 354.513 241.46 337.42C241.46 320.327 237.238 305.191 228.795 292.011C220.351 278.831 208.819 268.534 194.197 261.121C179.37 253.707 162.38 250 143.228 250C124.076 250 107.086 253.707 92.2591 261.121C77.4316 268.534 65.8992 278.831 57.6617 292.011C49.2184 305.191 44.9967 320.327 44.9967 337.42C44.9967 354.513 49.2184 369.649 57.6617 382.829C65.8992 396.009 77.4316 406.409 92.2591 414.028C107.086 421.442 124.076 425.149 143.228 425.149ZM143.228 370.782C138.08 370.782 133.446 369.546 129.328 367.075C125.209 364.603 121.914 360.897 119.443 355.954C116.971 350.806 115.736 344.628 115.736 337.42C115.736 330.006 116.971 323.931 119.443 319.195C121.914 314.252 125.209 310.545 129.328 308.074C133.446 305.603 138.08 304.367 143.228 304.367C148.377 304.367 153.01 305.603 157.129 308.074C161.248 310.545 164.543 314.252 167.014 319.195C169.485 323.931 170.721 330.006 170.721 337.42C170.721 344.628 169.485 350.806 167.014 355.954C164.543 360.897 161.248 364.603 157.129 367.075C153.01 369.546 148.377 370.782 143.228 370.782Z" fill="black"/>
</svg>
